<?xml version="1.0" encoding="utf-8"?>
<!-- Generator: Adobe Illustrator 27.5.0, SVG Export Plug-In . SVG Version: 6.00 Build 0)  -->
<svg version="1.1" xmlns="http://www.w3.org/2000/svg" xmlns:xlink="http://www.w3.org/1999/xlink" x="0px" y="0px"
	 viewBox="0 0 500 500" style="enable-background:new 0 0 500 500;" xml:space="preserve">
<g id="background">
	<rect style="fill:#FFFFFF;" width="500" height="500"/>
</g>
<g id="icons">
	<g>
		<g>
			<g>
				<polygon style="fill:#13355A;" points="378.21,293.887 308.803,364.215 306.518,361.898 375.924,291.57 				"/>
			</g>
			<path style="fill:#FFC13A;" d="M315.976,354.281c-14.574-14.572-14.574-38.205,0-52.778c14.574-14.575,38.201-14.575,52.775,0
				c14.575,14.573,14.575,38.206,0,52.778C354.177,368.853,330.55,368.853,315.976,354.281z"/>
			<g>
				
					<rect x="341.135" y="290.572" transform="matrix(0.7071 -0.7071 0.7071 0.7071 -131.5779 338.1112)" style="fill:#FFFFFF;" width="2.459" height="74.637"/>
			</g>
			<g>
				
					<rect x="305.045" y="326.661" transform="matrix(0.7071 -0.7071 0.7071 0.7071 -131.5774 338.1334)" style="fill:#FFFFFF;" width="74.637" height="2.459"/>
			</g>
			<g>
				<path style="fill:#FFFFFF;" d="M340.771,365.178l-2.466-0.186c-0.647-8.592-4.347-16.488-10.451-22.59
					c-6.104-6.104-13.994-9.805-22.591-10.453l-0.185-2.467c9.182,0.69,17.994,4.662,24.513,11.182
					C336.111,347.182,340.081,356,340.771,365.178z"/>
			</g>
			<g>
				<path style="fill:#FFFFFF;" d="M379.431,323.574l0.284,2.49c-9.183-0.692-17.827-4.666-24.343-11.184
					c-6.52-6.52-10.483-15.081-11.177-24.264l2.485,0.203c0.646,8.596,4.326,16.22,10.429,22.322
					C363.21,319.246,370.84,322.926,379.431,323.574z"/>
			</g>
			<line style="fill:none;" x1="355.868" y1="293.098" x2="355.868" y2="293.098"/>
			<line style="fill:none;" x1="308.186" y1="342.891" x2="308.186" y2="342.891"/>
			<g>
				<path style="fill:#FFFFFF;" d="M310.496,347.328c-2.11-14.27,2.101-26.584,12.706-37.345
					c10.766-10.92,23.562-16.726,37.036-14.916l2.89,1.808c-12.663-1.684-27.833,4.65-38.022,14.986
					c-10.158,10.307-15.139,24.082-13.123,37.709L310.496,347.328z"/>
			</g>
			<g>
				<path style="fill:#FFFFFF;" d="M329.074,362.201c-2.18,0-6.1-2.414-6.1-2.414c13.626,2.014,27.201-3.182,37.507-13.34
					c10.337-10.191,15.977-24.42,14.288-37.079l1.43,2.758c1.796,13.472-2.918,25.456-13.841,36.226
					C353.25,357.33,341.104,362.201,329.074,362.201z"/>
			</g>
			<g>
				<path style="fill:#13355A;" d="M342.364,374.563c-11.959,0-23.914-4.549-33.018-13.652l1.739-1.738
					c17.246,17.244,45.308,17.244,62.555,0c17.247-17.248,17.247-45.313,0-62.559l1.738-1.74c18.206,18.206,18.206,47.83,0,66.037
					C366.277,370.01,354.317,374.56,342.364,374.563z"/>
			</g>
			<rect x="336.549" y="374.563" style="fill:#13355A;" width="5.815" height="12.211"/>
			<rect x="322.975" y="386.773" style="fill:#13355A;" width="32.894" height="4.916"/>
		</g>
		<g>
			<path style="fill:#808285;" d="M390.852,145.386c0-0.952,0.771-1.723,1.724-1.723c0.95,0,1.722,0.771,1.722,1.723v8.289h-3.445
				V145.386z"/>
			<path style="fill:#13355A;" d="M383.579,161.65c0-4.968,4.027-8.994,8.996-8.994c4.968,0,8.995,4.026,8.995,8.994
				c0,4.969-4.027,8.996-8.995,8.996C387.606,170.646,383.579,166.62,383.579,161.65z"/>
			<path style="fill:#76D5D9;" d="M388.411,161.65c0-2.297,1.864-4.16,4.164-4.16c2.297,0,4.161,1.862,4.161,4.16
				c0,2.3-1.864,4.163-4.161,4.163C390.275,165.813,388.411,163.951,388.411,161.65z"/>
			<polygon style="fill:#13355A;" points="385.764,167.084 389.21,167.084 369.481,231.706 			"/>
			<polygon style="fill:#13355A;" points="399.387,167.084 395.942,167.084 415.67,231.706 			"/>
			<g>
				<path style="fill:#808285;" d="M377.034,175.335c-0.568-0.572-0.566-1.501,0.009-2.074c0.574-0.575,1.502-0.579,2.072-0.009
					c7.399,7.4,19.476,7.361,26.925-0.086c0.574-0.574,1.502-0.578,2.072-0.007c0.572,0.572,0.568,1.498-0.007,2.073
					C399.514,183.829,385.574,183.872,377.034,175.335z"/>
			</g>
			<path style="fill:#13355A;" d="M383.332,178.581c0-0.458,0.37-0.827,0.825-0.827c0.458,0,0.828,0.369,0.828,0.827
				c0,0.456-0.37,0.827-0.828,0.827C383.702,179.408,383.332,179.037,383.332,178.581z"/>
			<path style="fill:#13355A;" d="M400.208,178.581c0-0.458,0.37-0.827,0.827-0.827c0.456,0,0.826,0.369,0.826,0.827
				c0,0.456-0.37,0.827-0.826,0.827C400.578,179.408,400.208,179.037,400.208,178.581z"/>
		</g>
		<g>
			<rect x="348.888" y="191.372" style="fill:#8F70B3;" width="10.719" height="70.532"/>
			<rect x="348.888" y="261.904" style="fill:#DFEBF3;" width="10.719" height="1.721"/>
			<path style="fill:#EF6565;" d="M359.606,264.643c0,2.81-2.278,5.088-5.088,5.088h-0.542c-2.811,0-5.089-2.277-5.089-5.088v-1.018
				h10.719V264.643z"/>
			<polygon style="fill:#FFC13A;" points="351.942,182.858 356.554,182.858 359.606,191.372 348.888,191.372 			"/>
			<polygon style="fill:#13355A;" points="354.246,176.786 356.592,182.858 351.925,182.858 			"/>
		</g>
		<g>
			<rect x="257.064" y="243.729" style="fill:#67C8D0;" width="70.532" height="10.718"/>
			<rect x="327.596" y="243.729" style="fill:#DFEBF3;" width="1.722" height="10.718"/>
			<path style="fill:#EF6565;" d="M330.335,243.729c2.811,0,5.088,2.279,5.088,5.089v0.54c0,2.812-2.276,5.089-5.088,5.089h-1.018
				v-10.718H330.335z"/>
			<polygon style="fill:#FFC13A;" points="248.55,251.394 248.55,246.781 257.064,243.729 257.064,254.447 			"/>
			<polygon style="fill:#13355A;" points="242.477,249.089 248.55,246.743 248.55,251.41 			"/>
		</g>
		<g>
			<path style="fill:#8F70B3;" d="M304.969,392.565h7.24c0.741,0,1.302,0.674,1.145,1.398c-0.628,2.953-2.014,9.779-2.014,12.504
				s1.386,9.555,2.014,12.508c0.156,0.723-0.404,1.396-1.145,1.396h-7.24h0.013h-7.239c-0.739,0-1.3-0.674-1.146-1.396
				c0.628-2.953,2.013-9.783,2.013-12.508s-1.385-9.551-2.013-12.504c-0.154-0.725,0.406-1.398,1.146-1.398h7.239"/>
			<rect x="306.816" y="392.565" style="fill:#13355A;" width="1.834" height="27.807"/>
			<rect x="299.576" y="392.565" style="fill:#DEEBF3;" width="7.24" height="27.807"/>
			<path style="fill:#13355A;" d="M304.54,406.535c0,0.73-0.593,1.322-1.323,1.322c-0.727,0-1.319-0.592-1.319-1.322
				c0-0.729,0.593-1.32,1.319-1.32C303.947,405.215,304.54,405.807,304.54,406.535z"/>
		</g>
		<g>
			<path style="fill:#FFA229;" d="M257.386,189.969h7.24c0.741,0,1.301,0.673,1.145,1.398c-0.628,2.953-2.014,9.78-2.014,12.505
				c0,2.726,1.386,9.553,2.014,12.507c0.155,0.724-0.404,1.398-1.145,1.398h-7.24h0.013h-7.241c-0.738,0-1.297-0.674-1.144-1.398
				c0.627-2.954,2.012-9.781,2.012-12.507c0-2.725-1.385-9.552-2.012-12.505c-0.153-0.725,0.405-1.398,1.144-1.398h7.241"/>
			<rect x="259.231" y="189.969" style="fill:#13355A;" width="1.836" height="27.808"/>
			<rect x="251.992" y="189.969" style="fill:#DEEBF3;" width="7.239" height="27.808"/>
			<path style="fill:#13355A;" d="M256.956,203.941c0,0.728-0.592,1.321-1.321,1.321c-0.729,0-1.321-0.593-1.321-1.321
				c0-0.73,0.593-1.323,1.321-1.323C256.364,202.618,256.956,203.211,256.956,203.941z"/>
		</g>
		<g>
			<path style="fill:#74C695;" d="M178.129,141.946h7.239c0.742,0,1.301,0.673,1.146,1.397c-0.628,2.954-2.014,9.78-2.014,12.505
				c0,2.726,1.386,9.554,2.014,12.507c0.155,0.724-0.404,1.398-1.146,1.398h-7.239h0.013H170.9c-0.738,0-1.297-0.674-1.144-1.398
				c0.627-2.953,2.012-9.782,2.012-12.507c0-2.725-1.385-9.551-2.012-12.505c-0.153-0.725,0.406-1.397,1.144-1.397h7.241"/>
			<rect x="179.975" y="141.946" style="fill:#13355A;" width="1.835" height="27.808"/>
			<rect x="172.735" y="141.946" style="fill:#DEEBF3;" width="7.24" height="27.808"/>
			<path style="fill:#13355A;" d="M177.699,155.918c0,0.728-0.592,1.32-1.322,1.32c-0.729,0-1.321-0.592-1.321-1.32
				c0-0.73,0.592-1.322,1.321-1.322C177.107,154.596,177.699,155.188,177.699,155.918z"/>
		</g>
		<g>
			<path style="fill:none;stroke:#F1F2F2;stroke-width:2.6923;stroke-miterlimit:10;" d="M132.589,256.389
				c0-7.336-5.685-13.285-12.703-13.285c-7.016,0-12.703,5.949-12.703,13.285"/>
			<path style="fill:#EF6565;" d="M82.534,282.801c0-14.866,12.05-26.922,26.922-26.922h20.865
				c14.867,0,26.922,12.056,26.922,26.922v67.307H82.534V282.801z"/>
			<path style="fill:#FFA229;" d="M157.244,356.643c0,3.717-3.013,6.73-6.731,6.73H89.264c-3.718,0-6.73-3.014-6.73-6.73v-6.535
				h74.709V356.643z"/>
			<path style="fill:#FFC13A;" d="M96.673,301.554c0-9.241,7.491-10.002,16.732-10.002h12.963c9.241,0,16.733,0.761,16.733,10.002
				v48.554H96.673V301.554z"/>
			<path style="fill:none;stroke:#FFFFFF;stroke-width:2.2966;stroke-miterlimit:10;" d="M88.021,285.77"/>
			<path style="fill:none;stroke:#FFFFFF;stroke-width:2.2966;stroke-miterlimit:10;" d="M88.021,343.185"/>
			<path style="fill:none;stroke:#FFFFFF;stroke-width:2.2966;stroke-miterlimit:10;" d="M88.021,343.185"/>
			<path style="fill:none;stroke:#FFFFFF;stroke-width:2.2966;stroke-miterlimit:10;" d="M151.753,343.185"/>
			<path style="fill:none;stroke:#FFFFFF;stroke-width:2.2966;stroke-miterlimit:10;" d="M151.753,343.185"/>
			<path style="fill:none;stroke:#FFFFFF;stroke-width:2.2966;stroke-miterlimit:10;" d="M151.753,285.77"/>
			<g>
				<g>
					<path style="fill:#FFC13A;" d="M151.753,286.917c-0.635,0-1.149-0.513-1.149-1.147c0-12.031-9.788-21.818-21.817-21.818
						h-17.798c-12.031,0-21.819,9.787-21.819,21.818c0,0.635-0.514,1.147-1.149,1.147c-0.633,0-1.147-0.513-1.147-1.147
						c0-13.297,10.818-24.114,24.115-24.114h17.798c13.299,0,24.113,10.817,24.113,24.114
						C152.899,286.404,152.388,286.917,151.753,286.917z"/>
				</g>
			</g>
			<g>
				<path style="fill:#EF6565;" d="M139.572,302.799c0,1.234-2.341,2.244-5.202,2.244h-27.287c-2.861,0-5.202-1.01-5.202-2.244
					c0-1.235,2.341-2.245,5.202-2.245h27.287C137.23,300.554,139.572,301.564,139.572,302.799z"/>
			</g>
			<path style="fill:#DFEBF3;" d="M152.899,291.553c0,0.637-0.511,1.147-1.146,1.147c-0.635,0-1.149-0.511-1.149-1.147v-5.783h2.296
				V291.553z"/>
			<path style="fill:#DFEBF3;" d="M136.683,309.054c0,0.635-0.514,1.147-1.147,1.147c-0.635,0-1.15-0.513-1.15-1.147v-5.782h2.297
				V309.054z"/>
			<g>
				<path style="fill:#FFC13A;" d="M107.603,273.631c0-0.74,0.606-1.346,1.346-1.346h21.033c0.74,0,1.346,0.605,1.346,1.346v5.049
					c0,0.74-0.606,1.346-1.346,1.346h-21.033c-0.74,0-1.346-0.605-1.346-1.346V273.631z"/>
			</g>
			<g>
				<path style="fill:#DFEBF3;" d="M109.117,274.53c0-0.57,0.467-1.038,1.039-1.038h18.452c0.571,0,1.039,0.468,1.039,1.038v3.25
					c0,0.57-0.467,1.038-1.039,1.038h-18.452c-0.571,0-1.039-0.468-1.039-1.038V274.53z"/>
			</g>
		</g>
		<g>
			<path style="fill:#123659;" d="M349.168,97.995c8.02,8.021,8.02,21.023,0,29.043c-8.021,8.019-21.024,8.019-29.044,0
				c-8.018-8.02-8.018-21.022,0-29.043C328.144,89.976,341.147,89.976,349.168,97.995z"/>
			<path style="fill:#DEEBF3;" d="M345.993,101.169c6.268,6.268,6.268,16.428,0,22.695c-6.266,6.267-16.426,6.266-22.694-0.001
				c-6.265-6.267-6.265-16.426,0-22.694C329.567,94.903,339.728,94.903,345.993,101.169z"/>
			<g>
				<path style="fill:#FFFFFF;" d="M325.135,103.004c0.349-0.349,0.92-0.349,1.268,0c0.351,0.352,0.351,0.92,0,1.271
					c-4.542,4.545-4.542,11.939,0,16.484c0.354,0.352,0.354,0.919,0,1.269c-0.349,0.353-0.919,0.352-1.268,0
					C319.889,116.783,319.889,108.248,325.135,103.004z"/>
			</g>
			
				<rect x="350.701" y="125.455" transform="matrix(0.7074 -0.7068 0.7068 0.7074 11.1483 287.2399)" style="fill:#123659;" width="3.591" height="9.4"/>
			<path style="fill:#EF6565;" d="M376.623,146.453c1.752,1.753,1.752,4.595,0,6.348l-1.481,1.481c-1.753,1.753-4.594,1.753-6.35,0
				l-16.887-16.889l7.83-7.828L376.623,146.453z"/>
		</g>
		<g>
			<path style="fill:#123659;" d="M195.356,287.445c8.019,8.02,8.019,21.023,0,29.045c-8.022,8.018-21.025,8.018-29.044,0
				c-8.018-8.021-8.018-21.024,0-29.045C174.331,279.427,187.334,279.427,195.356,287.445z"/>
			<path style="fill:#DEEBF3;" d="M192.181,290.621c6.268,6.268,6.268,16.429,0,22.694c-6.267,6.269-16.426,6.267-22.694,0
				c-6.266-6.267-6.266-16.426,0-22.692C175.755,284.353,185.916,284.353,192.181,290.621z"/>
			<g>
				<path style="fill:#FFFFFF;" d="M171.321,292.455c0.35-0.349,0.921-0.349,1.269,0c0.352,0.352,0.352,0.92,0,1.27
					c-4.542,4.546-4.542,11.94,0,16.484c0.354,0.352,0.354,0.918,0,1.268c-0.348,0.353-0.917,0.352-1.269,0
					C166.076,306.234,166.076,297.698,171.321,292.455z"/>
			</g>
			
				<rect x="196.889" y="314.906" transform="matrix(0.7072 -0.707 0.707 0.7072 -167.7857 234.0296)" style="fill:#123659;" width="3.591" height="9.4"/>
			<path style="fill:#2591A5;" d="M222.81,335.904c1.753,1.754,1.753,4.596,0,6.348l-1.48,1.482c-1.753,1.752-4.595,1.752-6.349,0
				l-16.888-16.889l7.83-7.828L222.81,335.904z"/>
		</g>
		<g>
			<polyline style="fill:#DEEBF3;" points="153.938,153.016 153.938,79.948 221.228,79.948 			"/>
			<polyline style="fill:#FFFFFF;" points="165.836,123.341 165.836,91.101 195.525,91.101 			"/>
			<path style="fill:#2591A5;" d="M159.565,83.27c0,0.209-0.227,0.376-0.507,0.376c-0.283,0-0.509-0.167-0.509-0.376v-3.322h1.017
				V83.27z"/>
			<path style="fill:#2591A5;" d="M162.83,83.27c0,0.209-0.228,0.376-0.509,0.376c-0.282,0-0.51-0.167-0.51-0.376v-3.322h1.019
				V83.27z"/>
			<path style="fill:#2591A5;" d="M166.094,83.27c0,0.209-0.227,0.376-0.508,0.376c-0.281,0-0.509-0.167-0.509-0.376v-3.322h1.017
				V83.27z"/>
			<path style="fill:#2591A5;" d="M169.359,83.27c0,0.209-0.229,0.376-0.51,0.376c-0.281,0-0.507-0.167-0.507-0.376v-3.322h1.017
				V83.27z"/>
			<path style="fill:#2591A5;" d="M172.624,83.27c0,0.209-0.229,0.376-0.509,0.376c-0.281,0-0.509-0.167-0.509-0.376v-3.322h1.018
				V83.27z"/>
			<path style="fill:#2591A5;" d="M175.888,83.27c0,0.209-0.227,0.376-0.509,0.376c-0.281,0-0.508-0.167-0.508-0.376v-3.322h1.017
				V83.27z"/>
			<path style="fill:#2591A5;" d="M179.153,83.27c0,0.209-0.228,0.376-0.508,0.376c-0.281,0-0.51-0.167-0.51-0.376v-3.322h1.018
				V83.27z"/>
			<path style="fill:#2591A5;" d="M182.417,83.27c0,0.209-0.227,0.376-0.508,0.376c-0.282,0-0.509-0.167-0.509-0.376v-3.322h1.017
				V83.27z"/>
			<path style="fill:#2591A5;" d="M185.682,83.27c0,0.209-0.228,0.376-0.509,0.376c-0.281,0-0.509-0.167-0.509-0.376v-3.322h1.018
				V83.27z"/>
			<path style="fill:#2591A5;" d="M188.947,83.27c0,0.209-0.228,0.376-0.508,0.376c-0.281,0-0.509-0.167-0.509-0.376v-3.322h1.018
				V83.27z"/>
			<path style="fill:#2591A5;" d="M192.212,83.27c0,0.209-0.227,0.376-0.51,0.376c-0.281,0-0.507-0.167-0.507-0.376v-3.322h1.017
				V83.27z"/>
			<path style="fill:#2591A5;" d="M195.477,83.27c0,0.209-0.228,0.376-0.509,0.376c-0.281,0-0.509-0.167-0.509-0.376v-3.322h1.018
				V83.27z"/>
			<path style="fill:#2591A5;" d="M198.74,83.27c0,0.209-0.226,0.376-0.507,0.376c-0.283,0-0.509-0.167-0.509-0.376v-3.322h1.017
				V83.27z"/>
			<path style="fill:#2591A5;" d="M202.006,83.27c0,0.209-0.228,0.376-0.509,0.376c-0.281,0-0.509-0.167-0.509-0.376v-3.322h1.019
				V83.27z"/>
			<path style="fill:#2591A5;" d="M205.271,83.27c0,0.209-0.229,0.376-0.509,0.376c-0.281,0-0.509-0.167-0.509-0.376v-3.322h1.019
				V83.27z"/>
			<path style="fill:#2591A5;" d="M208.535,83.27c0,0.209-0.227,0.376-0.51,0.376c-0.281,0-0.508-0.167-0.508-0.376v-3.322h1.018
				V83.27z"/>
			<path style="fill:#2591A5;" d="M211.8,83.27c0,0.209-0.228,0.376-0.509,0.376c-0.281,0-0.509-0.167-0.509-0.376v-3.322h1.018
				V83.27z"/>
		</g>
		<g>
			<path style="fill:#FFC13A;" d="M75.512,155.117c0-7.175,5.814-12.99,12.989-12.99h54.553v90.659H88.501
				c-7.174,0-12.989-5.816-12.989-12.989V155.117z"/>
			<path style="fill:#FFFFFF;" d="M79.907,222.395c0-3.587,2.849-6.495,6.359-6.495h56.788v12.99H86.266
				C82.756,228.89,79.907,225.982,79.907,222.395z"/>
			<g>
				<path style="fill:#EF6565;" d="M95.712,161.64c0-1.4,1.146-2.546,2.546-2.546h26.516c1.4,0,2.546,1.146,2.546,2.546v15.691
					c0,1.4-1.146,2.546-2.546,2.546H98.258c-1.4,0-2.546-1.146-2.546-2.546V161.64z"/>
			</g>
			<path style="fill:#DFEBF3;" d="M87.078,230.858c0,0.929-0.496,1.68-1.107,1.68c-0.612,0-1.11-0.751-1.11-1.68v-8.462h2.217
				V230.858z"/>
			<rect x="100.908" y="164.283" style="fill:#FFC13A;" width="21.864" height="1.083"/>
			<rect x="100.908" y="167.529" style="fill:#FFFFFF;" width="21.864" height="1.084"/>
			<rect x="100.908" y="170.777" style="fill:#FFFFFF;" width="21.864" height="1.082"/>
			<rect x="100.908" y="174.024" style="fill:#FFFFFF;" width="21.864" height="1.083"/>
		</g>
		<g>
			<path style="fill:#FFA229;" d="M243.138,72.788c13.358-13.358,35.017-13.358,48.374,0c13.357,13.359,13.357,35.015,0,48.373
				c-13.357,13.358-35.016,13.358-48.374,0C229.78,107.803,229.78,86.146,243.138,72.788z"/>
			<g>
				
					<rect x="233.12" y="95.849" transform="matrix(0.7079 -0.7063 0.7063 0.7079 9.5941 217.1473)" style="fill:#EF6565;" width="68.41" height="2.251"/>
			</g>
			<g>
				
					<rect x="266.2" y="62.769" transform="matrix(0.7071 -0.7071 0.7071 0.7071 9.7239 217.4253)" style="fill:#EF6565;" width="2.251" height="68.41"/>
			</g>
			<g>
				<path style="fill:#EF6565;" d="M233.15,95.515l0.172-2.26c7.875-0.593,15.111-3.985,20.706-9.58
					c5.593-5.594,8.985-12.825,9.579-20.705l2.262-0.17c-0.634,8.414-4.272,16.493-10.249,22.468
					C249.645,91.243,241.563,94.881,233.15,95.515z"/>
			</g>
			<g>
				<path style="fill:#EF6565;" d="M271.283,130.951l-2.281,0.256c0.635-8.413,4.274-16.336,10.247-22.309
					c5.975-5.975,13.824-9.609,22.24-10.244l-0.188,2.277c-7.879,0.593-14.864,3.964-20.46,9.559
					C275.25,116.083,271.878,123.075,271.283,130.951z"/>
			</g>
		</g>
		<g>
			<path style="fill:#EF6565;" d="M195.799,145.736c0-11.465,7.834-21.1,18.442-23.841c1.975-0.512,4.047,1.871,6.182,1.871
				c2.135,0,4.206-2.382,6.182-1.871c10.607,2.742,18.443,12.377,18.443,23.841c0,12.099-8.725,22.16-20.229,24.232
				c-1.427,0.258-2.896-0.678-4.397-0.678c-1.866,0-2.424,1.111-4.172,0.718C205.265,167.535,195.799,157.471,195.799,145.736z"/>
			<g>
				<path style="fill:#123659;" d="M219.265,115.096c0-0.477,0.39-0.867,0.867-0.867h0.291c0.477,0,0.867,0.39,0.867,0.867v5.86
					c0,0.477-0.39,0.867-0.867,0.867h-0.291c-0.477,0-0.867-0.39-0.867-0.867V115.096z"/>
			</g>
			<path style="fill:#2591A5;" d="M205.724,104.626c0,0,6.009-0.839,9.197,2.35c3.188,3.189,2.351,9.198,2.351,9.198
				s-6.009,0.837-9.199-2.352C204.885,110.634,205.724,104.626,205.724,104.626z"/>
			<path style="fill:none;stroke:#FFFFFF;stroke-width:1.7342;stroke-linecap:round;stroke-miterlimit:10;" d="M238.811,154.08
				c-0.929,2.049-2.188,3.916-3.712,5.532c-2.896,3.07-6.747,5.233-11.075,6.014"/>
			<path style="fill:none;stroke:#FFFFFF;stroke-width:1.7342;stroke-linecap:round;stroke-miterlimit:10;" d="M238.811,154.08"/>
			<path style="fill:none;stroke:#FFFFFF;stroke-width:1.7342;stroke-linecap:round;stroke-miterlimit:10;" d="M239.709,151.7"/>
			<path style="fill:none;stroke:#FFFFFF;stroke-width:1.7342;stroke-linecap:round;stroke-miterlimit:10;" d="M240.593,145.776
				c0,1.481-0.159,2.926-0.462,4.317"/>
		</g>
		<g>
			<path style="fill:#74C695;" d="M373.57,267.07c0-11.856,8.099-21.816,19.067-24.65c2.042-0.529,4.184,1.935,6.392,1.935
				c2.206,0,4.348-2.462,6.392-1.935c10.968,2.834,19.067,12.794,19.067,24.65c0,12.508-9.02,22.912-20.914,25.055
				c-1.474,0.265-2.994-0.703-4.545-0.703c-1.93,0-2.506,1.149-4.315,0.742C383.356,289.609,373.57,279.203,373.57,267.07z"/>
			<g>
				<path style="fill:#123659;" d="M397.832,235.393c0-0.493,0.403-0.896,0.896-0.896h0.301c0.493,0,0.896,0.403,0.896,0.896v6.057
					c0,0.493-0.403,0.896-0.896,0.896h-0.301c-0.493,0-0.896-0.403-0.896-0.896V235.393z"/>
			</g>
			<path style="fill:#2591A5;" d="M383.833,224.567c0,0,6.211-0.868,9.509,2.43c3.296,3.296,2.431,9.509,2.431,9.509
				s-6.214,0.867-9.511-2.431C382.966,230.779,383.833,224.567,383.833,224.567z"/>
			<path style="fill:none;stroke:#FFFFFF;stroke-width:1.793;stroke-linecap:round;stroke-miterlimit:10;" d="M418.041,275.696
				c-0.96,2.12-2.264,4.048-3.839,5.719c-2.994,3.176-6.975,5.411-11.451,6.218"/>
			<path style="fill:none;stroke:#FFFFFF;stroke-width:1.793;stroke-linecap:round;stroke-miterlimit:10;" d="M418.041,275.696"/>
			<path style="fill:none;stroke:#FFFFFF;stroke-width:1.793;stroke-linecap:round;stroke-miterlimit:10;" d="M418.967,273.234"/>
			<path style="fill:none;stroke:#FFFFFF;stroke-width:1.793;stroke-linecap:round;stroke-miterlimit:10;" d="M419.881,267.111
				c0,1.533-0.164,3.026-0.478,4.465"/>
		</g>
		<g>
			<g>
				<path style="fill:#13355A;" d="M216.587,266.591c0,3.208-2.624,5.832-5.831,5.832h-40.813c-3.208,0-5.832-2.624-5.832-5.832
					V185.53c0-3.208,2.624-5.832,5.832-5.832h40.813c3.208,0,5.831,2.624,5.831,5.832V266.591z"/>
			</g>
			<rect x="189.37" y="179.698" style="fill:#227E97;" width="2.293" height="92.725"/>
			<path style="fill:#EF6565;" d="M181.718,191.768c3.003,3.003,3.003,7.875,0,10.878c-3.006,3.004-7.876,3.004-10.877,0
				c-3.005-3.004-3.005-7.875,0-10.878C173.842,188.764,178.713,188.764,181.718,191.768z"/>
			<g>
				<path style="fill:#FFFFFF;" d="M171.72,192.648c0.166-0.168,0.44-0.168,0.607,0c0.167,0.167,0.167,0.44,0,0.608
					c-2.178,2.178-2.178,5.723,0,7.902c0.167,0.169,0.167,0.441,0,0.609c-0.167,0.169-0.441,0.169-0.607,0
					C169.203,199.252,169.203,195.161,171.72,192.648z"/>
			</g>
			<path style="fill:#67C8D0;" d="M181.718,210.429c3.003,3.004,3.003,7.874,0,10.879c-3.006,3.003-7.876,3.003-10.877,0
				c-3.005-3.005-3.005-7.875,0-10.879C173.842,207.424,178.713,207.424,181.718,210.429z"/>
			<g>
				<path style="fill:#FFFFFF;" d="M171.72,211.309c0.166-0.168,0.44-0.168,0.607,0c0.167,0.168,0.167,0.441,0,0.608
					c-2.178,2.179-2.178,5.724,0,7.902c0.167,0.169,0.167,0.441,0,0.608c-0.167,0.169-0.441,0.169-0.607,0
					C169.203,217.914,169.203,213.822,171.72,211.309z"/>
			</g>
			<path style="fill:#FFC13A;" d="M181.718,229.09c3.003,3.003,3.003,7.874,0,10.878c-3.006,3.003-7.876,3.003-10.877,0
				c-3.005-3.004-3.005-7.875,0-10.878C173.842,226.085,178.713,226.085,181.718,229.09z"/>
			<g>
				<path style="fill:#FFFFFF;" d="M171.72,229.969c0.166-0.167,0.44-0.167,0.607,0c0.167,0.168,0.167,0.441,0,0.609
					c-2.178,2.179-2.178,5.723,0,7.902c0.167,0.169,0.167,0.441,0,0.609c-0.167,0.168-0.441,0.168-0.607,0
					C169.203,236.574,169.203,232.482,171.72,229.969z"/>
			</g>
			<path style="fill:#8F70B3;" d="M181.718,247.751c3.003,3.003,3.003,7.873,0,10.878c-3.006,3.004-7.876,3.004-10.877,0
				c-3.005-3.005-3.005-7.875,0-10.878C173.842,244.746,178.713,244.746,181.718,247.751z"/>
			<g>
				<path style="fill:#FFFFFF;" d="M171.72,248.631c0.166-0.169,0.44-0.169,0.607,0c0.167,0.167,0.167,0.44,0,0.608
					c-2.178,2.179-2.178,5.722,0,7.902c0.167,0.17,0.167,0.441,0,0.608c-0.167,0.169-0.441,0.169-0.607,0
					C169.203,255.236,169.203,251.145,171.72,248.631z"/>
			</g>
			<path style="fill:#2591A5;" d="M210.703,191.768c3.003,3.003,3.003,7.875,0,10.878c-3.003,3.004-7.874,3.004-10.88,0
				c-3.003-3.004-3.003-7.875,0-10.878C202.829,188.764,207.7,188.764,210.703,191.768z"/>
			<g>
				<path style="fill:#FFFFFF;" d="M200.703,192.648c0.169-0.168,0.442-0.168,0.608,0c0.169,0.167,0.169,0.44,0,0.608
					c-2.177,2.178-2.177,5.723,0,7.902c0.169,0.169,0.169,0.441,0,0.609c-0.166,0.169-0.439,0.169-0.608,0
					C198.189,199.252,198.189,195.161,200.703,192.648z"/>
			</g>
			<path style="fill:#DEEBF3;" d="M210.703,210.429c3.003,3.004,3.003,7.874,0,10.879c-3.003,3.003-7.874,3.003-10.88,0
				c-3.003-3.005-3.003-7.875,0-10.879C202.829,207.424,207.7,207.424,210.703,210.429z"/>
			<g>
				<path style="fill:#FFFFFF;" d="M200.703,211.309c0.169-0.168,0.442-0.168,0.608,0c0.169,0.168,0.169,0.441,0,0.608
					c-2.177,2.179-2.177,5.724,0,7.902c0.169,0.169,0.169,0.441,0,0.608c-0.166,0.169-0.439,0.169-0.608,0
					C198.189,217.914,198.189,213.822,200.703,211.309z"/>
			</g>
			<path style="fill:#74C695;" d="M210.703,229.09c3.003,3.003,3.003,7.874,0,10.878c-3.003,3.003-7.874,3.003-10.88,0
				c-3.003-3.004-3.003-7.875,0-10.878C202.829,226.085,207.7,226.085,210.703,229.09z"/>
			<g>
				<path style="fill:#FFFFFF;" d="M200.703,229.969c0.169-0.167,0.442-0.167,0.608,0c0.169,0.168,0.169,0.441,0,0.609
					c-2.177,2.179-2.177,5.723,0,7.902c0.169,0.169,0.169,0.441,0,0.609c-0.166,0.168-0.439,0.168-0.608,0
					C198.189,236.574,198.189,232.482,200.703,229.969z"/>
			</g>
			<path style="fill:#FFA229;" d="M210.703,247.751c3.003,3.003,3.003,7.873,0,10.878c-3.003,3.004-7.874,3.004-10.88,0
				c-3.003-3.005-3.003-7.875,0-10.878C202.829,244.746,207.7,244.746,210.703,247.751z"/>
			<g>
				<path style="fill:#FFFFFF;" d="M200.703,248.631c0.169-0.169,0.442-0.169,0.608,0c0.169,0.167,0.169,0.44,0,0.608
					c-2.177,2.179-2.177,5.722,0,7.902c0.169,0.17,0.169,0.441,0,0.608c-0.166,0.169-0.439,0.169-0.608,0
					C198.189,255.236,198.189,251.145,200.703,248.631z"/>
			</g>
			<path style="fill:#FFA229;" d="M225.194,211.183h4.893v55.869c0,1.351-1.095,2.446-2.446,2.446c-1.352,0-2.446-1.096-2.446-2.446
				V211.183z"/>
			<path style="fill:#DEEBF3;" d="M225.194,197.207h4.893c0,0,2.472,11.506,0,13.976c-0.866,0.865-4.028,0.865-4.893,0
				C222.723,208.713,225.194,197.207,225.194,197.207z"/>
			<path style="fill:#4D3014;" d="M223.351,193.792c0-2.368,4.289-10.004,4.289-10.004s4.29,7.637,4.29,10.004
				c0,2.369-1.921,4.289-4.29,4.289C225.272,198.081,223.351,196.161,223.351,193.792z"/>
		</g>
		<g>
			<g>
				<path style="fill:#13355A;" d="M340.421,218.618c0,3.282-2.686,5.967-5.967,5.967h-54.729c-3.281,0-5.967-2.685-5.967-5.967
					v-66.83c0-3.282,2.686-5.967,5.967-5.967h54.729c3.281,0,5.967,2.685,5.967,5.967V218.618z"/>
			</g>
			<rect x="280.357" y="154.216" style="fill:#76D5D9;" width="52.907" height="14.6"/>
			<path style="fill:#DEEBF3;" d="M286.725,178.017c0,1.757-1.426,3.183-3.184,3.183c-1.757,0-3.184-1.425-3.184-3.183
				c0-1.758,1.427-3.182,3.184-3.182C285.299,174.835,286.725,176.259,286.725,178.017z"/>
			<path style="fill:#DEEBF3;" d="M298.357,178.017c0,1.757-1.424,3.183-3.181,3.183c-1.758,0-3.182-1.425-3.182-3.183
				c0-1.758,1.424-3.182,3.182-3.182C296.934,174.835,298.357,176.259,298.357,178.017z"/>
			<path style="fill:#DEEBF3;" d="M309.993,178.017c0,1.757-1.424,3.183-3.181,3.183c-1.758,0-3.182-1.425-3.182-3.183
				c0-1.758,1.424-3.182,3.182-3.182C308.569,174.835,309.993,176.259,309.993,178.017z"/>
			<path style="fill:#DEEBF3;" d="M321.629,178.017c0,1.757-1.423,3.183-3.182,3.183c-1.757,0-3.182-1.425-3.182-3.183
				c0-1.758,1.425-3.182,3.182-3.182C320.206,174.835,321.629,176.259,321.629,178.017z"/>
			<path style="fill:#DEEBF3;" d="M333.265,178.017c0,1.757-1.425,3.183-3.181,3.183c-1.757,0-3.184-1.425-3.184-3.183
				c0-1.758,1.427-3.182,3.184-3.182C331.84,174.835,333.265,176.259,333.265,178.017z"/>
			<path style="fill:#DEEBF3;" d="M286.725,190.262c0,1.758-1.426,3.184-3.184,3.184c-1.757,0-3.184-1.425-3.184-3.184
				c0-1.756,1.427-3.181,3.184-3.181C285.299,187.081,286.725,188.506,286.725,190.262z"/>
			<path style="fill:#DEEBF3;" d="M298.357,190.262c0,1.758-1.424,3.184-3.181,3.184c-1.758,0-3.182-1.425-3.182-3.184
				c0-1.756,1.424-3.181,3.182-3.181C296.934,187.081,298.357,188.506,298.357,190.262z"/>
			<path style="fill:#DEEBF3;" d="M309.993,190.262c0,1.758-1.424,3.184-3.181,3.184c-1.758,0-3.182-1.425-3.182-3.184
				c0-1.756,1.424-3.181,3.182-3.181C308.569,187.081,309.993,188.506,309.993,190.262z"/>
			<path style="fill:#DEEBF3;" d="M321.629,190.262c0,1.758-1.423,3.184-3.182,3.184c-1.757,0-3.182-1.425-3.182-3.184
				c0-1.756,1.425-3.181,3.182-3.181C320.206,187.081,321.629,188.506,321.629,190.262z"/>
			<path style="fill:#DEEBF3;" d="M333.265,190.262c0,1.758-1.425,3.184-3.181,3.184c-1.757,0-3.184-1.425-3.184-3.184
				c0-1.756,1.427-3.181,3.184-3.181C331.84,187.081,333.265,188.506,333.265,190.262z"/>
			<path style="fill:#DEEBF3;" d="M286.725,202.509c0,1.757-1.426,3.183-3.184,3.183c-1.757,0-3.184-1.426-3.184-3.183
				c0-1.757,1.427-3.181,3.184-3.181C285.299,199.328,286.725,200.752,286.725,202.509z"/>
			<path style="fill:#DEEBF3;" d="M298.357,202.509c0,1.757-1.424,3.183-3.181,3.183c-1.758,0-3.182-1.426-3.182-3.183
				c0-1.757,1.424-3.181,3.182-3.181C296.934,199.328,298.357,200.752,298.357,202.509z"/>
			<path style="fill:#DEEBF3;" d="M309.993,202.509c0,1.757-1.424,3.183-3.181,3.183c-1.758,0-3.182-1.426-3.182-3.183
				c0-1.757,1.424-3.181,3.182-3.181C308.569,199.328,309.993,200.752,309.993,202.509z"/>
			<path style="fill:#DEEBF3;" d="M321.629,202.509c0,1.757-1.423,3.183-3.182,3.183c-1.757,0-3.182-1.426-3.182-3.183
				c0-1.757,1.425-3.181,3.182-3.181C320.206,199.328,321.629,200.752,321.629,202.509z"/>
			<path style="fill:#DEEBF3;" d="M333.265,202.509c0,1.757-1.425,3.183-3.181,3.183c-1.757,0-3.184-1.426-3.184-3.183
				c0-1.757,1.427-3.181,3.184-3.181C331.84,199.328,333.265,200.752,333.265,202.509z"/>
			<path style="fill:#DEEBF3;" d="M286.725,214.756c0,1.757-1.426,3.182-3.184,3.182c-1.757,0-3.184-1.424-3.184-3.182
				c0-1.758,1.427-3.182,3.184-3.182C285.299,211.574,286.725,212.998,286.725,214.756z"/>
			<path style="fill:#DEEBF3;" d="M298.357,214.756c0,1.757-1.424,3.182-3.181,3.182c-1.758,0-3.182-1.424-3.182-3.182
				c0-1.758,1.424-3.182,3.182-3.182C296.934,211.574,298.357,212.998,298.357,214.756z"/>
			<path style="fill:#DEEBF3;" d="M309.993,214.756c0,1.757-1.424,3.182-3.181,3.182c-1.758,0-3.182-1.424-3.182-3.182
				c0-1.758,1.424-3.182,3.182-3.182C308.569,211.574,309.993,212.998,309.993,214.756z"/>
			<path style="fill:#DEEBF3;" d="M321.629,214.756c0,1.757-1.423,3.182-3.182,3.182c-1.757,0-3.182-1.424-3.182-3.182
				c0-1.758,1.425-3.182,3.182-3.182C320.206,211.574,321.629,212.998,321.629,214.756z"/>
			<path style="fill:#DEEBF3;" d="M333.265,214.756c0,1.757-1.425,3.182-3.181,3.182c-1.757,0-3.184-1.424-3.184-3.182
				c0-1.758,1.427-3.182,3.184-3.182C331.84,211.574,333.265,212.998,333.265,214.756z"/>
		</g>
		<g>
			<rect x="167.852" y="348.029" style="fill:#FFA229;" width="10.719" height="70.531"/>
			<rect x="167.852" y="418.56" style="fill:#DFEBF3;" width="10.719" height="1.723"/>
			<path style="fill:#EF6565;" d="M178.571,421.297c0,2.813-2.279,5.09-5.089,5.09h-0.54c-2.811,0-5.089-2.277-5.089-5.09v-1.014
				h10.719V421.297z"/>
			<polygon style="fill:#FFC13A;" points="170.907,339.516 175.519,339.516 178.571,348.029 167.852,348.029 			"/>
			<polygon style="fill:#13355A;" points="173.213,333.44 175.558,339.516 170.889,339.516 			"/>
		</g>
		<g>
			<path style="fill:#DEEBF3;" d="M240.362,364.221c-25.41,0-46.007,16.332-46.007,36.482c0,20.148,20.638,35.057,46.007,36.482
				c18.403,1.035,4.47-15.785,12.84-22.672c7.972-6.561,33.166-3.98,33.166-13.811C286.368,380.553,265.771,364.221,240.362,364.221
				z M236.958,419.053c-5.138,0-9.306-3.039-9.306-6.791c0-3.754,4.167-6.795,9.306-6.795c5.142,0,9.309,3.041,9.309,6.795
				C246.268,416.014,242.101,419.053,236.958,419.053z"/>
			<path style="fill:#EF6565;" d="M209.199,393.955c2.273,2.275,2.273,5.963,0,8.234c-2.274,2.273-5.959,2.273-8.234,0
				c-2.273-2.272-2.273-5.959,0-8.234C203.239,391.682,206.926,391.682,209.199,393.955z"/>
			<g>
				<path style="fill:#FFFFFF;" d="M201.631,394.621c0.127-0.127,0.333-0.127,0.46,0c0.128,0.127,0.128,0.334,0,0.461
					c-1.648,1.646-1.648,4.332,0,5.98c0.128,0.129,0.128,0.334,0,0.463c-0.127,0.127-0.333,0.127-0.46,0
					C199.727,399.621,199.727,396.525,201.631,394.621z"/>
			</g>
			<path style="fill:#67C8D0;" d="M220.843,379.705c2.275,2.273,2.275,5.961,0,8.234c-2.273,2.273-5.96,2.273-8.232,0
				c-2.275-2.274-2.275-5.961,0-8.234C214.882,377.434,218.57,377.434,220.843,379.705z"/>
			<g>
				<path style="fill:#FFFFFF;" d="M213.275,380.371c0.127-0.127,0.333-0.127,0.46,0c0.128,0.129,0.128,0.334,0,0.461
					c-1.648,1.648-1.648,4.332,0,5.98c0.128,0.129,0.128,0.336,0,0.461c-0.128,0.129-0.333,0.129-0.46,0
					C211.373,385.371,211.373,382.273,213.275,380.371z"/>
			</g>
			<path style="fill:#FFC13A;" d="M237.165,372.805c2.273,2.273,2.273,5.957,0,8.23c-2.275,2.277-5.96,2.277-8.235,0
				c-2.274-2.273-2.274-5.957,0-8.23C231.205,370.529,234.89,370.529,237.165,372.805z"/>
			<g>
				<path style="fill:#FFFFFF;" d="M229.597,373.471c0.127-0.127,0.333-0.127,0.46,0c0.127,0.125,0.127,0.332,0,0.457
					c-1.649,1.652-1.649,4.332,0,5.984c0.127,0.125,0.127,0.332,0,0.459c-0.127,0.129-0.333,0.129-0.46,0
					C227.692,378.471,227.692,375.373,229.597,373.471z"/>
			</g>
			<path style="fill:#74C695;" d="M255.689,372.805c2.272,2.273,2.272,5.957,0,8.23c-2.276,2.277-5.962,2.277-8.236,0
				c-2.273-2.273-2.273-5.957,0-8.23C249.727,370.529,253.413,370.529,255.689,372.805z"/>
			<g>
				<path style="fill:#FFFFFF;" d="M248.12,373.471c0.127-0.127,0.333-0.127,0.46,0c0.127,0.125,0.127,0.332,0,0.457
					c-1.65,1.652-1.65,4.332,0,5.984c0.127,0.125,0.127,0.332,0,0.459c-0.127,0.129-0.333,0.129-0.46,0
					C246.217,378.471,246.217,375.373,248.12,373.471z"/>
			</g>
			<path style="fill:#8F70B3;" d="M271.274,381.621c2.273,2.273,2.273,5.961,0,8.234c-2.276,2.273-5.961,2.273-8.233,0
				c-2.275-2.273-2.275-5.961,0-8.234C265.314,379.344,269.002,379.344,271.274,381.621z"/>
			<g>
				<path style="fill:#FFFFFF;" d="M263.706,382.287c0.127-0.127,0.334-0.127,0.462,0c0.126,0.125,0.126,0.332,0,0.461
					c-1.65,1.649-1.65,4.33,0,5.98c0.126,0.127,0.126,0.332,0,0.459c-0.128,0.129-0.335,0.129-0.462,0
					C261.802,387.285,261.802,384.19,263.706,382.287z"/>
			</g>
		</g>
		<g>
			<path style="fill:#8F70B3;" d="M229.499,281.147c0-7.174,5.815-12.988,12.989-12.988h54.554v90.658h-54.554
				c-7.174,0-12.989-5.816-12.989-12.988V281.147z"/>
			<path style="fill:#FFFFFF;" d="M233.895,348.426c0-3.588,2.849-6.496,6.358-6.496h56.789v12.99h-56.789
				C236.744,354.92,233.895,352.012,233.895,348.426z"/>
			<g>
				<path style="fill:#74C695;" d="M249.7,287.669c0-1.4,1.145-2.546,2.546-2.546h26.516c1.4,0,2.546,1.146,2.546,2.546v15.69
					c0,1.4-1.146,2.546-2.546,2.546h-26.516c-1.4,0-2.546-1.146-2.546-2.546V287.669z"/>
			</g>
			<path style="fill:#DFEBF3;" d="M241.065,356.889c0,0.93-0.495,1.682-1.107,1.682c-0.612,0-1.11-0.752-1.11-1.682v-8.463h2.217
				V356.889z"/>
			<rect x="254.895" y="290.313" style="fill:#FFC13A;" width="21.865" height="1.083"/>
			<rect x="254.895" y="293.559" style="fill:#FFFFFF;" width="21.865" height="1.083"/>
			<rect x="254.895" y="296.808" style="fill:#FFFFFF;" width="21.865" height="1.082"/>
			<rect x="254.895" y="300.053" style="fill:#FFFFFF;" width="21.865" height="1.084"/>
		</g>
	</g>
</g>
</svg>
